# xmcd CD database file
#
# Track frame offsets:
#	150
#	23850
#	47925
#	78397
#	102767
#	134127
#	163277
#	190232
#	217595
#	246142
#
# Disc length: 3762 seconds
#
# Revision: 1
# Processed by: cddbd v1.5PL3 Copyright (c) Steve Scherf et al.
# Submitted via: CDex 1.51
#
DISCID=880eb00a
DTITLE=Yoichi Kobayashi and Good Fellows - Funky All
DYEAR=1900
DGENRE=Jazz
TTITLE0=clear cut
TTITLE1=humid soul
TTITLE2=akita rap
TTITLE3=scuffle shuffle
TTITLE4=only one
TTITLE5=don't you worry 'bout a thing
TTITLE6=spring can really hang you up the most
TTITLE7=yeah!
TTITLE8=the cape verdean blues
TTITLE9=god bless the child
EXTD=
EXTT0=
EXTT1=
EXTT2=
EXTT3=
EXTT4=
EXTT5=
EXTT6=
EXTT7=
EXTT8=
EXTT9=
PLAYORDER=
